<svg xmlns="http://www.w3.org/2000/svg" xmlns:xlink="http://www.w3.org/1999/xlink" width="1600" zoomAndPan="magnify" viewBox="0 0 1200 675.000002" height="900" preserveAspectRatio="xMidYMid meet" version="1.0"><defs><clipPath id="2987f1c253"><path d="M 0.886719 0 L 1199.113281 0 L 1199.113281 674 L 0.886719 674 Z M 0.886719 0 " clip-rule="nonzero"/></clipPath><clipPath id="39dc0ab930"><path d="M 28.53125 61.457031 L 74.195312 61.457031 L 74.195312 104.914062 L 28.53125 104.914062 Z M 28.53125 61.457031 " clip-rule="nonzero"/></clipPath><clipPath id="fd2abf0de6"><path d="M 51.328125 61.457031 L 56.710938 78.054688 L 74.125 78.054688 L 60.035156 88.3125 L 65.417969 104.914062 L 51.328125 94.652344 L 37.238281 104.914062 L 42.621094 88.3125 L 28.53125 78.054688 L 45.945312 78.054688 Z M 51.328125 61.457031 " clip-rule="nonzero"/></clipPath><clipPath id="024dfd07d3"><path d="M 0.53125 0.457031 L 46.195312 0.457031 L 46.195312 43.914062 L 0.53125 43.914062 Z M 0.53125 0.457031 " clip-rule="nonzero"/></clipPath><clipPath id="b8afa5791a"><path d="M 23.328125 0.457031 L 28.710938 17.054688 L 46.125 17.054688 L 32.035156 27.3125 L 37.417969 43.914062 L 23.328125 33.652344 L 9.238281 43.914062 L 14.621094 27.3125 L 0.53125 17.054688 L 17.945312 17.054688 Z M 23.328125 0.457031 " clip-rule="nonzero"/></clipPath><clipPath id="7129b8c51c"><rect x="0" width="47" y="0" height="44"/></clipPath><clipPath id="1a5586934e"><path d="M 40 19 L 178.46875 19 L 178.46875 326.703125 L 40 326.703125 Z M 40 19 " clip-rule="nonzero"/></clipPath><clipPath id="a074d6cf40"><path d="M 0.414062 102 L 93 102 L 93 251 L 0.414062 251 Z M 0.414062 102 " clip-rule="nonzero"/></clipPath><clipPath id="6e5ed9d42f"><path d="M 92 0.261719 L 135 0.261719 L 135 106 L 92 106 Z M 92 0.261719 " clip-rule="nonzero"/></clipPath><clipPath id="52db8217c6"><rect x="0" width="179" y="0" height="328"/></clipPath></defs><g clip-path="url(#2987f1c253)"><path fill="#ffffff" d="M 0.886719 0 L 1199.113281 0 L 1199.113281 674 L 0.886719 674 Z M 0.886719 0 " fill-opacity="1" fill-rule="nonzero"/><path fill="#1a1a1a" d="M 0.886719 0 L 1199.113281 0 L 1199.113281 674 L 0.886719 674 Z M 0.886719 0 " fill-opacity="1" fill-rule="nonzero"/></g><g transform="matrix(1, 0, 0, 1, 509, 173)"><g clip-path="url(#52db8217c6)"><g clip-path="url(#39dc0ab930)"><g clip-path="url(#fd2abf0de6)"><g transform="matrix(1, 0, 0, 1, 28, 61)"><g clip-path="url(#7129b8c51c)"><g clip-path="url(#024dfd07d3)"><g clip-path="url(#b8afa5791a)"><path fill="#ffffff" d="M 0.53125 0.457031 L 46.195312 0.457031 L 46.195312 43.914062 L 0.53125 43.914062 Z M 0.53125 0.457031 " fill-opacity="1" fill-rule="nonzero"/></g></g></g></g></g></g><g clip-path="url(#1a5586934e)"><path fill="#ffffff" d="M 129.746094 247.15625 C 118.035156 256.832031 106.277344 263.386719 102.3125 265.53125 C 92.457031 270.855469 83.464844 274.488281 76.222656 276.984375 C 87.316406 275.105469 102.421875 271.191406 118.585938 262.519531 C 146.890625 247.339844 162.949219 225.882812 170.460938 214.132812 C 171.421875 236.179688 164.980469 249.367188 160.433594 256.320312 C 151.953125 269.277344 133.894531 285.140625 111.871094 294.03125 C 103.460938 297.429688 94.390625 299.84375 89.65625 308.496094 C 86.0625 315.078125 86.5625 322.375 87.59375 327.613281 C 66.132812 316.640625 55.78125 304.160156 50.566406 295.507812 C 50.558594 295.5 50.550781 295.492188 50.550781 295.484375 C 49.90625 294.417969 49.34375 293.417969 48.851562 292.484375 C 48.089844 291.046875 47.515625 289.832031 47.351562 289.480469 C 43.691406 281.75 36.441406 263.234375 42.132812 243.402344 C 47.328125 225.277344 59.671875 218.808594 78.296875 200.523438 C 78.296875 200.523438 81.605469 197.277344 86.765625 191.507812 C 88.902344 189.117188 91.363281 186.296875 94.039062 183.089844 C 103.441406 171.816406 115.386719 157.566406 124.789062 139.054688 C 141.230469 106.675781 142.332031 76.285156 142.347656 65.695312 C 142.390625 45.945312 138.792969 29.851562 135.632812 19.207031 C 144.667969 29.257812 167.191406 57.128906 168.183594 96.691406 C 168.800781 121.453125 160.703125 139.832031 153.410156 155.933594 C 135.5625 195.277344 108.027344 221.585938 86.5625 237.71875 C 99.707031 230.898438 121.429688 217.5 141.015625 193.429688 C 161.992188 167.65625 170.636719 141.808594 174.382812 127.167969 C 177.523438 139.433594 181.804688 163.984375 172.3125 191.230469 C 162.15625 220.367188 141.527344 237.417969 129.746094 247.15625 Z M 129.746094 247.15625 " fill-opacity="1" fill-rule="nonzero"/></g><g clip-path="url(#a074d6cf40)"><path fill="#ffffff" d="M 81.726562 113.363281 C 79.296875 115.894531 73.53125 121.324219 55.089844 128.527344 C 37.734375 135.296875 25.183594 135.023438 22.445312 142.304688 C 21.382812 145.15625 21.691406 147.894531 22.046875 149.617188 C 19.5625 151.394531 16.757812 153.433594 13.703125 155.722656 C 6.578125 161.0625 4.042969 163.285156 2.457031 167.097656 C 1.851562 168.558594 1.601562 169.722656 1.4375 170.515625 C 0.0273438 177.296875 2.253906 183.359375 3.960938 186.847656 C 5.535156 184.265625 8.320312 180.480469 12.910156 177.320312 C 22.164062 170.960938 32.097656 171.746094 35.105469 172.097656 C 37.734375 169.277344 40.371094 166.460938 43.007812 163.640625 C 37.519531 170.632812 26.632812 186.507812 23.683594 209.535156 C 21.53125 226.34375 24.492188 240.074219 26.890625 248.089844 C 26.882812 243.78125 27.363281 237.617188 29.65625 230.644531 C 32.640625 221.570312 37.34375 215.199219 40.523438 211.542969 C 37.804688 217.101562 31.660156 231.3125 32.652344 250.023438 C 33.042969 247.128906 33.648438 244.183594 34.496094 241.210938 C 39.003906 225.519531 48.261719 217.207031 59.996094 206.6875 C 63.800781 203.265625 68.109375 199.398438 72.730469 194.863281 C 72.785156 194.808594 77.257812 190.402344 83.78125 182.882812 C 82.320312 177.945312 81.457031 173.613281 80.917969 170.117188 C 79.289062 159.511719 77.660156 147.960938 84.027344 138.347656 C 85.910156 135.503906 86.910156 135.464844 88.53125 132.804688 C 91.96875 127.152344 94.332031 117.902344 89.699219 102.089844 C 88.210938 105.003906 85.71875 109.195312 81.726562 113.363281 Z M 81.726562 113.363281 " fill-opacity="1" fill-rule="nonzero"/></g><g clip-path="url(#6e5ed9d42f)"><path fill="#ffffff" d="M 133.003906 48.164062 C 129.039062 24.019531 121.113281 15.589844 119.042969 13.5 C 109.8125 4.1875 98.429688 1.308594 92.28125 0.28125 C 99.125 6.507812 106.746094 14.851562 113.464844 25.726562 C 133.367188 57.949219 132.230469 91.207031 130.832031 105.503906 C 136.625 80.519531 135.023438 60.457031 133.003906 48.164062 Z M 133.003906 48.164062 " fill-opacity="1" fill-rule="nonzero"/></g></g></g></svg>