<svg xmlns="http://www.w3.org/2000/svg" xmlns:xlink="http://www.w3.org/1999/xlink" width="1600" zoomAndPan="magnify" viewBox="0 0 1200 675.000002" height="900" preserveAspectRatio="xMidYMid meet" version="1.0"><defs><g/><clipPath id="4b06c74f9f"><path d="M 0.886719 0 L 1199.113281 0 L 1199.113281 674 L 0.886719 674 Z M 0.886719 0 " clip-rule="nonzero"/></clipPath><clipPath id="046afb6a5f"><path d="M 1.128906 1 L 160 1 L 160 173.277344 L 1.128906 173.277344 Z M 1.128906 1 " clip-rule="nonzero"/></clipPath><clipPath id="b0c2eff24c"><rect x="0" width="697" y="0" height="174"/></clipPath></defs><g clip-path="url(#4b06c74f9f)"><path fill="#ffffff" d="M 0.886719 0 L 1199.113281 0 L 1199.113281 674 L 0.886719 674 Z M 0.886719 0 " fill-opacity="1" fill-rule="nonzero"/><path fill="#eef3f7" d="M 0.886719 0 L 1199.113281 0 L 1199.113281 674 L 0.886719 674 Z M 0.886719 0 " fill-opacity="1" fill-rule="nonzero"/></g><g transform="matrix(1, 0, 0, 1, 252, 254)"><g clip-path="url(#b0c2eff24c)"><path fill="#3754ed" d="M 109.140625 65.011719 C 112.21875 68.0625 117.179688 68.035156 120.222656 64.960938 C 123.273438 61.886719 123.246094 56.925781 120.171875 53.878906 C 101.777344 35.652344 71.992188 35.785156 53.765625 54.179688 C 35.539062 72.574219 35.679688 102.363281 54.070312 120.589844 C 63.269531 129.703125 75.308594 134.222656 87.335938 134.167969 C 99.363281 134.117188 111.367188 129.480469 120.480469 120.285156 C 123.527344 117.210938 123.503906 112.25 120.429688 109.203125 C 117.355469 106.15625 112.394531 106.179688 109.347656 109.253906 C 97.203125 121.503906 77.355469 121.59375 65.105469 109.453125 C 52.855469 97.3125 52.761719 77.464844 64.902344 65.210938 C 77.042969 52.964844 96.886719 52.871094 109.140625 65.011719 Z M 109.140625 65.011719 " fill-opacity="1" fill-rule="nonzero"/><g clip-path="url(#046afb6a5f)"><path fill="#3754ed" d="M 159.710938 120.152344 C 159.664062 109.6875 155.542969 99.863281 148.109375 92.496094 C 145.039062 89.453125 145.019531 84.480469 148.058594 81.410156 C 163.265625 66.066406 163.148438 41.203125 147.804688 25.996094 C 114.039062 -7.464844 59.339844 -7.214844 25.878906 26.554688 C 9.671875 42.914062 0.800781 64.601562 0.910156 87.628906 C 1.015625 110.660156 10.082031 132.265625 26.4375 148.472656 C 43.324219 165.203125 65.4375 173.507812 87.515625 173.40625 C 109.589844 173.304688 131.628906 164.800781 148.359375 147.917969 C 155.730469 140.484375 159.757812 130.621094 159.710938 120.152344 Z M 137.226562 136.882812 C 109.855469 164.507812 65.101562 164.714844 37.472656 137.339844 C 24.089844 124.082031 16.671875 106.398438 16.585938 87.558594 C 16.496094 68.71875 23.753906 50.972656 37.015625 37.585938 C 64.386719 9.957031 109.140625 9.753906 136.769531 37.128906 C 145.980469 46.253906 146.046875 61.171875 136.921875 70.378906 C 127.796875 79.585938 127.867188 94.5 137.074219 103.628906 C 141.535156 108.050781 144.003906 113.945312 144.035156 120.226562 C 144.066406 126.503906 141.648438 132.421875 137.226562 136.882812 " fill-opacity="1" fill-rule="nonzero"/></g><path fill="#3754ed" d="M 85.984375 99.96875 C 85.148438 99.96875 84.320312 99.886719 83.5 99.722656 C 82.679688 99.558594 81.882812 99.320312 81.109375 99 C 80.335938 98.679688 79.601562 98.285156 78.90625 97.820312 C 78.214844 97.355469 77.570312 96.828125 76.976562 96.238281 C 76.386719 95.648438 75.859375 95.003906 75.394531 94.308594 C 74.929688 93.613281 74.539062 92.878906 74.21875 92.105469 C 73.898438 91.335938 73.65625 90.539062 73.492188 89.71875 C 73.332031 88.898438 73.25 88.070312 73.25 87.234375 C 73.25 86.398438 73.332031 85.570312 73.492188 84.75 C 73.65625 83.929688 73.898438 83.132812 74.21875 82.359375 C 74.539062 81.589844 74.929688 80.855469 75.394531 80.160156 C 75.859375 79.464844 76.386719 78.820312 76.976562 78.230469 C 77.570312 77.636719 78.214844 77.109375 78.90625 76.644531 C 79.601562 76.179688 80.335938 75.789062 81.109375 75.46875 C 81.882812 75.148438 82.679688 74.90625 83.5 74.746094 C 84.320312 74.582031 85.148438 74.5 85.984375 74.5 C 86.820312 74.5 87.648438 74.582031 88.46875 74.746094 C 89.285156 74.90625 90.082031 75.148438 90.855469 75.46875 C 91.628906 75.789062 92.363281 76.179688 93.058594 76.644531 C 93.753906 77.109375 94.394531 77.636719 94.988281 78.230469 C 95.578125 78.820312 96.105469 79.464844 96.570312 80.160156 C 97.035156 80.855469 97.425781 81.589844 97.746094 82.359375 C 98.066406 83.132812 98.308594 83.929688 98.472656 84.75 C 98.636719 85.570312 98.714844 86.398438 98.714844 87.234375 C 98.714844 88.070312 98.636719 88.898438 98.472656 89.71875 C 98.308594 90.539062 98.066406 91.335938 97.746094 92.105469 C 97.425781 92.878906 97.035156 93.613281 96.570312 94.308594 C 96.105469 95.003906 95.578125 95.648438 94.988281 96.238281 C 94.394531 96.828125 93.753906 97.355469 93.058594 97.820312 C 92.363281 98.285156 91.628906 98.679688 90.855469 99 C 90.082031 99.320312 89.285156 99.558594 88.46875 99.722656 C 87.648438 99.886719 86.820312 99.96875 85.984375 99.96875 Z M 85.984375 99.96875 " fill-opacity="1" fill-rule="nonzero"/><g fill="#3754ed" fill-opacity="1"><g transform="translate(191.273136, 122.154919)"><g><path d="M 2.484375 -34.296875 L 2.484375 -38.265625 C 2.484375 -45.617188 3.957031 -51.960938 6.90625 -57.296875 C 9.851562 -62.628906 14.039062 -66.753906 19.46875 -69.671875 C 24.90625 -72.585938 31.40625 -74.046875 38.96875 -74.046875 C 49.632812 -74.046875 58.015625 -71.28125 64.109375 -65.75 C 70.203125 -60.21875 73.679688 -52.546875 74.546875 -42.734375 L 53.96875 -42.734375 C 52.445312 -52.015625 47.378906 -56.65625 38.765625 -56.65625 C 33.992188 -56.65625 30.113281 -55.046875 27.125 -51.828125 C 24.144531 -48.617188 22.65625 -43.929688 22.65625 -37.765625 L 22.65625 -34.78125 C 22.65625 -28.625 24.144531 -23.9375 27.125 -20.71875 C 30.113281 -17.507812 33.992188 -15.90625 38.765625 -15.90625 C 47.378906 -15.90625 52.445312 -20.539062 53.96875 -29.8125 L 74.546875 -29.8125 C 73.679688 -20.007812 70.203125 -12.34375 64.109375 -6.8125 C 58.015625 -1.28125 49.632812 1.484375 38.96875 1.484375 C 31.40625 1.484375 24.90625 0.03125 19.46875 -2.875 C 14.039062 -5.789062 9.851562 -9.914062 6.90625 -15.25 C 3.957031 -20.582031 2.484375 -26.929688 2.484375 -34.296875 Z M 2.484375 -34.296875 "/></g></g></g><g fill="#3754ed" fill-opacity="1"><g transform="translate(268.103404, 122.154919)"><g><path d="M 29.015625 -21.171875 L 38.859375 -52.671875 L 57.9375 -52.671875 L 40.546875 -3.078125 C 38.429688 2.953125 36.144531 7.738281 33.6875 11.28125 C 31.238281 14.820312 28.40625 17.351562 25.1875 18.875 C 21.976562 20.40625 18.117188 21.171875 13.609375 21.171875 C 11.554688 21.171875 9.601562 21.035156 7.75 20.765625 C 5.894531 20.503906 4.335938 20.207031 3.078125 19.875 L 3.078125 4.578125 C 4.335938 4.703125 5.597656 4.8125 6.859375 4.90625 C 8.117188 5.007812 9.242188 5.0625 10.234375 5.0625 C 12.359375 5.0625 14.03125 4.628906 15.25 3.765625 C 16.476562 2.910156 17.488281 1.257812 18.28125 -1.1875 L -1 -52.671875 L 19.078125 -52.671875 Z M 29.015625 -21.171875 "/></g></g></g><g fill="#3754ed" fill-opacity="1"><g transform="translate(325.055188, 122.154919)"><g><path d="M 41.546875 -54.171875 C 45.523438 -54.171875 49.1875 -53.09375 52.53125 -50.9375 C 55.875 -48.78125 58.554688 -45.695312 60.578125 -41.6875 C 62.597656 -37.6875 63.609375 -32.9375 63.609375 -27.4375 L 63.609375 -25.25 C 63.609375 -19.75 62.597656 -14.992188 60.578125 -10.984375 C 58.554688 -6.972656 55.875 -3.890625 52.53125 -1.734375 C 49.1875 0.410156 45.523438 1.484375 41.546875 1.484375 C 36.640625 1.484375 32.332031 -0.0195312 28.625 -3.03125 C 24.914062 -6.039062 22.398438 -10.332031 21.078125 -15.90625 L 14.703125 0 L 5.765625 0 L 5.765625 -72.5625 L 24.84375 -72.5625 L 24.84375 -43.328125 C 26.632812 -46.847656 29.003906 -49.535156 31.953125 -51.390625 C 34.898438 -53.242188 38.097656 -54.171875 41.546875 -54.171875 Z M 34.6875 -15.015625 C 37.664062 -15.015625 40.03125 -15.957031 41.78125 -17.84375 C 43.539062 -19.726562 44.421875 -22.5625 44.421875 -26.34375 C 44.421875 -30.113281 43.539062 -32.941406 41.78125 -34.828125 C 40.03125 -36.722656 37.664062 -37.671875 34.6875 -37.671875 C 31.769531 -37.671875 29.398438 -36.707031 27.578125 -34.78125 C 25.753906 -32.863281 24.84375 -30.050781 24.84375 -26.34375 C 24.84375 -22.695312 25.753906 -19.894531 27.578125 -17.9375 C 29.398438 -15.988281 31.769531 -15.015625 34.6875 -15.015625 Z M 34.6875 -15.015625 "/></g></g></g><g fill="#3754ed" fill-opacity="1"><g transform="translate(391.151083, 122.154919)"><g><path d="M 59.53125 -29.71875 C 59.53125 -27 59.398438 -24.546875 59.140625 -22.359375 L 20.875 -22.359375 C 21.332031 -19.117188 22.375 -16.800781 24 -15.40625 C 25.625 -14.007812 27.660156 -13.3125 30.109375 -13.3125 C 32.691406 -13.3125 34.613281 -13.722656 35.875 -14.546875 C 37.132812 -15.378906 38.097656 -16.492188 38.765625 -17.890625 L 58.640625 -17.890625 C 58.171875 -14.441406 56.859375 -11.242188 54.703125 -8.296875 C 52.554688 -5.347656 49.546875 -2.976562 45.671875 -1.1875 C 41.796875 0.59375 37.007812 1.484375 31.3125 1.484375 C 25.28125 1.484375 20.109375 0.375 15.796875 -1.84375 C 11.492188 -4.0625 8.195312 -7.191406 5.90625 -11.234375 C 3.625 -15.273438 2.484375 -19.945312 2.484375 -25.25 L 2.484375 -27.4375 C 2.484375 -32.800781 3.625 -37.488281 5.90625 -41.5 C 8.195312 -45.507812 11.507812 -48.625 15.84375 -50.84375 C 20.1875 -53.0625 25.441406 -54.171875 31.609375 -54.171875 C 37.441406 -54.171875 42.441406 -53.109375 46.609375 -50.984375 C 50.785156 -48.867188 53.984375 -45.972656 56.203125 -42.296875 C 58.421875 -38.617188 59.53125 -34.425781 59.53125 -29.71875 Z M 31.109375 -39.953125 C 28.390625 -39.953125 26.1875 -39.351562 24.5 -38.15625 C 22.8125 -36.96875 21.671875 -34.914062 21.078125 -32 L 40.359375 -32 C 39.953125 -34.851562 38.96875 -36.890625 37.40625 -38.109375 C 35.851562 -39.335938 33.753906 -39.953125 31.109375 -39.953125 Z M 31.109375 -39.953125 "/></g></g></g><g fill="#3754ed" fill-opacity="1"><g transform="translate(453.171897, 122.154919)"><g><path d="M 35.984375 -54.171875 C 37.566406 -54.171875 38.921875 -54.050781 40.046875 -53.8125 C 41.179688 -53.582031 42.078125 -53.367188 42.734375 -53.171875 L 42.734375 -33 C 41.742188 -33.132812 40.566406 -33.25 39.203125 -33.34375 C 37.847656 -33.445312 36.375 -33.5 34.78125 -33.5 C 31.132812 -33.5 28.597656 -32.566406 27.171875 -30.703125 C 25.753906 -28.847656 25.046875 -25.601562 25.046875 -20.96875 L 25.046875 0 L 5.765625 0 L 5.765625 -52.671875 L 14.703125 -52.671875 L 21.078125 -36.578125 C 22.265625 -43.066406 24.234375 -47.617188 26.984375 -50.234375 C 29.734375 -52.859375 32.734375 -54.171875 35.984375 -54.171875 Z M 35.984375 -54.171875 "/></g></g></g><g fill="#3754ed" fill-opacity="1"><g transform="translate(497.401466, 122.154919)"><g><path d="M 2.484375 -34.296875 L 2.484375 -38.265625 C 2.484375 -45.617188 3.957031 -51.960938 6.90625 -57.296875 C 9.851562 -62.628906 14.039062 -66.753906 19.46875 -69.671875 C 24.90625 -72.585938 31.40625 -74.046875 38.96875 -74.046875 C 49.632812 -74.046875 58.015625 -71.28125 64.109375 -65.75 C 70.203125 -60.21875 73.679688 -52.546875 74.546875 -42.734375 L 53.96875 -42.734375 C 52.445312 -52.015625 47.378906 -56.65625 38.765625 -56.65625 C 33.992188 -56.65625 30.113281 -55.046875 27.125 -51.828125 C 24.144531 -48.617188 22.65625 -43.929688 22.65625 -37.765625 L 22.65625 -34.78125 C 22.65625 -28.625 24.144531 -23.9375 27.125 -20.71875 C 30.113281 -17.507812 33.992188 -15.90625 38.765625 -15.90625 C 47.378906 -15.90625 52.445312 -20.539062 53.96875 -29.8125 L 74.546875 -29.8125 C 73.679688 -20.007812 70.203125 -12.34375 64.109375 -6.8125 C 58.015625 -1.28125 49.632812 1.484375 38.96875 1.484375 C 31.40625 1.484375 24.90625 0.03125 19.46875 -2.875 C 14.039062 -5.789062 9.851562 -9.914062 6.90625 -15.25 C 3.957031 -20.582031 2.484375 -26.929688 2.484375 -34.296875 Z M 2.484375 -34.296875 "/></g></g></g><g fill="#3754ed" fill-opacity="1"><g transform="translate(574.231733, 122.154919)"><g><path d="M 29.015625 -21.171875 L 38.859375 -52.671875 L 57.9375 -52.671875 L 40.546875 -3.078125 C 38.429688 2.953125 36.144531 7.738281 33.6875 11.28125 C 31.238281 14.820312 28.40625 17.351562 25.1875 18.875 C 21.976562 20.40625 18.117188 21.171875 13.609375 21.171875 C 11.554688 21.171875 9.601562 21.035156 7.75 20.765625 C 5.894531 20.503906 4.335938 20.207031 3.078125 19.875 L 3.078125 4.578125 C 4.335938 4.703125 5.597656 4.8125 6.859375 4.90625 C 8.117188 5.007812 9.242188 5.0625 10.234375 5.0625 C 12.359375 5.0625 14.03125 4.628906 15.25 3.765625 C 16.476562 2.910156 17.488281 1.257812 18.28125 -1.1875 L -1 -52.671875 L 19.078125 -52.671875 Z M 29.015625 -21.171875 "/></g></g></g><g fill="#3754ed" fill-opacity="1"><g transform="translate(631.183518, 122.154919)"><g><path d="M 39.953125 -54.171875 C 45.648438 -54.171875 50.335938 -52.164062 54.015625 -48.15625 C 57.691406 -44.144531 59.53125 -38.296875 59.53125 -30.609375 L 59.53125 0 L 40.453125 0 L 40.453125 -27.828125 C 40.453125 -31.335938 39.851562 -33.785156 38.65625 -35.171875 C 37.46875 -36.566406 35.710938 -37.265625 33.390625 -37.265625 C 30.941406 -37.265625 28.921875 -36.351562 27.328125 -34.53125 C 25.742188 -32.71875 24.953125 -29.953125 24.953125 -26.234375 L 24.953125 0 L 5.765625 0 L 5.765625 -52.671875 L 14.703125 -52.671875 L 21.078125 -37.078125 C 22.398438 -42.972656 24.75 -47.296875 28.125 -50.046875 C 31.507812 -52.796875 35.453125 -54.171875 39.953125 -54.171875 Z M 39.953125 -54.171875 "/></g></g></g></g></g></svg>