<?xml version="1.0" encoding="UTF-8"?>
<svg id="Layer_2" data-name="Layer 2" xmlns="http://www.w3.org/2000/svg" viewBox="0 0 259.49 303.83">
  <defs>
    <style>
      .cls-1 {
        fill: #fff;
      }
    </style>
  </defs>
  <g id="Layer_1-2" data-name="Layer 1">
    <g>
      <path class="cls-1" d="M138.66,174.99h-6.32s.03-97.61.03-97.61l-2.56-45.13c-1.1-.15-.59,1.43-.62,2.2-.52,13.45-.73,26.97-1.92,40.4l.03,100.14h-6.32c-1.45-15.28-6.72-30.09-13.35-43.81-4.53-9.38-11.07-18.36-15.17-27.77C76.26,66.28,109.89,28.75,129.5.04c.92-.23,1.04.58,1.47,1.04,3.96,4.2,10.05,14.02,13.62,19.22,13.42,19.56,31.01,45.97,26.73,70.84-2.32,13.47-11.76,25.18-17.85,37.1-7.22,14.14-13.68,30.86-14.82,46.75Z"/>
      <path class="cls-1" d="M186.64,180.04c.53,1.4,3.02,1.56,4.28,1.71,34.39,4.28,59.26-45.86,24.13-56.98-30.26-9.58-62.64,22.64-69.54,50.13l-4.34-.24c5.74-25.47,18.22-50.25,39.96-65.5,22.49-15.79,58.58-16.96,73.57,9.42,8.05,14.17,5.36,29.86-3.78,42.71-14.43,20.29-48.99,32.47-70.59,16.84l.32-1.26c6.42,2.71,16.62,1.66,20.42-4.82,4.3-7.34-2.34-13.6-9.25-15.19-13.67-3.14-25.5,3.38-34.55,13.07-2.84,3.04-2.64,6.14-8.51,5.06,4.98-15.7,18.04-32.09,33.24-39.06,17.2-7.9,42.81-2.61,40.66,20.46-.92,9.92-14.53,23.66-24.34,23.66h-11.68Z"/>
      <path class="cls-1" d="M118.45,174.99l-4.33-.08c-7.01-22.71-26.15-46.24-50.47-50.88-28.21-5.39-47.29,17.4-29.43,42.07,8.41,11.62,23.18,18.12,37.51,15.21l-11.9-1.67c-16.25-3.69-31.1-23.55-18.73-38.75,3.52-4.32,7.95-6.98,13.43-8.04,25.32-4.9,48.93,20.05,56.34,42.15l-6.22-.72c-6.16-13.66-31.19-24.79-43.66-14.12-8.42,7.2-2.08,16.8,7.34,17.93,4,.48,7.19-.22,10.98-1.19-15.36,14.47-42.83,8.05-58.3-3.27-42.78-31.33-14.94-86.25,36.2-74.11,33.26,7.89,54.66,44.08,61.24,75.47Z"/>
      <path class="cls-1" d="M127.92,216.67l1.9,17.05,1.88-17.05,7.62-.36c4.59,14.95,15.25,27.8,30.28,32.9l-39.17,54.62-41.03-54.64c14.8-4.77,27.25-17.76,30.3-33.16l8.21.63ZM130.44,275.41l12.57-19.27c-5.82-4.44-9.55-10.89-13.82-16.73-2.41,6.55-7.76,11.89-12.61,16.74l12.56,18.88,1.3.39Z"/>
      <path class="cls-1" d="M113.4,214.79c-5.79,18.53-26.91,32.64-46.08,24.3-16.74-7.29-16.36-27.56.64-34.72,4.63-1.95,15.7-4.07,20.53-3.52,3.59.41,1.51,4.03-.29,5.46-2.46,1.96-12.61,3.46-8.82,9.98s17.3.62,21.2-3.93l12.82,2.43Z"/>
      <path class="cls-1" d="M145.6,214.78l12.95-2.32c3.68,4.61,18.2,10.57,21.3,3.42,3.26-7.53-11.4-7.82-11.53-14.99,14.68-.55,38.51,4.2,35.94,23.62-1.13,8.53-10.63,15.53-18.74,16.63-18.72,2.53-33.39-9.79-39.93-26.36Z"/>
      <path class="cls-1" d="M156.04,180.34c6.02.41,7.86,10.55.58,11.67-11.41,1.76-27.5,1.89-39.11,1.29-3.57-.18-11.7-.78-14.89-1.53-6.56-1.54-5.17-10.2-.24-11.1,2.67-.49,10.46,1.6,13.87,1.89,9.21.79,18.5.83,27.69-.08,3.27-.32,9.39-2.34,12.1-2.15Z"/>
      <path class="cls-1" d="M99.05,207.03c-2.78-2.8-.49-8.44,3.26-8.58,2.9-.11,9.75,1.99,13.37,2.36,9.15.94,19.18,1.06,28.33.07,2.93-.32,10.7-2.52,12.55-2.34,4.96.47,6.9,7.84,1.69,9.64-3.12,1.07-12.49,2.01-16.1,2.21-7.62.43-18.32.48-25.91-.03-2.75-.18-15.84-1.97-17.19-3.33Z"/>
    </g>
  </g>
</svg>