<svg xmlns="http://www.w3.org/2000/svg" xmlns:xlink="http://www.w3.org/1999/xlink" width="1600" zoomAndPan="magnify" viewBox="0 0 1200 683.04" height="900" preserveAspectRatio="xMidYMid meet" version="1.0"><defs><clipPath id="55eefd76b3"><path d="M 0.84375 0 L 1199.15625 0 L 1199.15625 674.050781 L 0.84375 674.050781 Z M 0.84375 0 " clip-rule="nonzero"/></clipPath><clipPath id="03b9d40ed9"><path d="M 339.480469 67.40625 L 860.746094 67.40625 L 860.746094 606.648438 L 339.480469 606.648438 Z M 339.480469 67.40625 " clip-rule="nonzero"/></clipPath></defs><g clip-path="url(#55eefd76b3)"><path fill="#ffffff" d="M 0.84375 0 L 1199.15625 0 L 1199.15625 674.050781 L 0.84375 674.050781 Z M 0.84375 0 " fill-opacity="1" fill-rule="nonzero"/><path fill="#fafaf5" d="M 0.84375 0 L 1199.15625 0 L 1199.15625 674.050781 L 0.84375 674.050781 Z M 0.84375 0 " fill-opacity="1" fill-rule="nonzero"/></g><path fill="#000000" d="M 600.113281 381.941406 C 605.054688 381.941406 609.101562 377.902344 609.101562 372.960938 L 609.101562 346.007812 L 618.085938 346.007812 C 632.917969 346.007812 645.050781 333.882812 645.050781 319.058594 C 645.050781 304.238281 632.917969 292.109375 618.085938 292.109375 L 600.113281 292.109375 C 595.167969 292.109375 591.125 296.152344 591.125 301.09375 L 591.125 372.960938 C 591.125 377.902344 595.167969 381.941406 600.113281 381.941406 Z M 609.101562 310.078125 L 618.085938 310.078125 C 623.03125 310.078125 627.074219 314.117188 627.074219 319.058594 C 627.074219 324 623.03125 328.042969 618.085938 328.042969 L 609.101562 328.042969 Z M 609.101562 310.078125 " fill-opacity="1" fill-rule="nonzero"/><path fill="#000000" d="M 672.011719 381.941406 C 676.953125 381.941406 681 377.902344 681 372.960938 L 681 301.09375 C 681 296.152344 676.953125 292.109375 672.011719 292.109375 C 667.066406 292.109375 663.023438 296.152344 663.023438 301.09375 L 663.023438 372.960938 C 663.023438 377.902344 667.066406 381.941406 672.011719 381.941406 Z M 672.011719 381.941406 " fill-opacity="1" fill-rule="nonzero"/><path fill="#000000" d="M 528.214844 381.941406 C 533.15625 381.941406 537.199219 377.902344 537.199219 372.960938 L 537.199219 346.007812 L 555.175781 346.007812 L 555.175781 372.960938 C 555.175781 377.902344 559.21875 381.941406 564.164062 381.941406 C 569.105469 381.941406 573.148438 377.902344 573.148438 372.960938 L 573.148438 319.058594 C 573.148438 304.238281 561.015625 292.109375 546.1875 292.109375 C 531.359375 292.109375 519.226562 304.238281 519.226562 319.058594 L 519.226562 372.960938 C 519.226562 377.902344 523.269531 381.941406 528.214844 381.941406 Z M 537.199219 319.058594 C 537.199219 314.117188 541.246094 310.078125 546.1875 310.078125 C 551.132812 310.078125 555.175781 314.117188 555.175781 319.058594 L 555.175781 328.042969 L 537.199219 328.042969 Z M 537.199219 319.058594 " fill-opacity="1" fill-rule="nonzero"/><path fill="#000000" d="M 600.113281 471.777344 C 674.484375 471.777344 734.921875 411.363281 734.921875 337.027344 C 734.921875 262.6875 674.484375 202.277344 600.113281 202.277344 C 525.742188 202.277344 465.300781 262.6875 465.300781 337.027344 C 465.300781 411.363281 525.742188 471.777344 600.113281 471.777344 Z M 600.113281 220.242188 C 664.484375 220.242188 716.949219 272.683594 716.949219 337.027344 C 716.949219 401.371094 664.484375 453.808594 600.113281 453.808594 C 535.742188 453.808594 483.277344 401.371094 483.277344 337.027344 C 483.277344 272.683594 535.742188 220.242188 600.113281 220.242188 Z M 600.113281 220.242188 " fill-opacity="1" fill-rule="nonzero"/><g clip-path="url(#03b9d40ed9)"><path fill="#000000" d="M 366.441406 534.660156 C 381.269531 534.660156 393.402344 522.53125 393.402344 507.710938 C 393.402344 496.03125 385.875 486.039062 375.429688 482.332031 L 375.429688 458.1875 L 443.058594 404.0625 C 447.101562 413.382812 451.933594 422.480469 457.550781 430.902344 L 441.035156 447.410156 C 437.554688 450.890625 437.554688 456.617188 441.035156 460.097656 L 476.984375 496.03125 C 480.46875 499.511719 486.199219 499.511719 489.679688 496.03125 L 506.195312 479.523438 C 523.832031 491.089844 543.605469 499.398438 564.164062 503.890625 L 564.164062 534.660156 C 564.164062 539.601562 568.207031 543.644531 573.148438 543.644531 L 627.074219 543.644531 C 632.015625 543.644531 636.0625 539.601562 636.0625 534.660156 L 636.0625 503.890625 C 643.589844 502.320312 651.003906 500.1875 658.191406 497.492188 L 672.125 581.035156 C 672.796875 585.414062 676.617188 588.558594 681 588.558594 L 709.535156 588.558594 C 713.242188 599.003906 723.238281 606.527344 734.921875 606.527344 C 749.753906 606.527344 761.886719 594.398438 761.886719 579.578125 C 761.886719 564.753906 749.753906 552.625 734.921875 552.625 C 723.238281 552.625 713.242188 560.148438 709.535156 570.59375 L 688.636719 570.59375 L 675.269531 490.304688 C 681.785156 487.160156 688.074219 483.566406 694.144531 479.523438 L 710.65625 496.03125 C 714.140625 499.511719 719.867188 499.511719 723.351562 496.03125 L 759.300781 460.097656 C 762.785156 456.617188 762.785156 450.890625 759.300781 447.410156 L 742.785156 430.902344 C 743.683594 429.554688 744.585938 428.207031 745.371094 426.859375 L 808.394531 426.859375 C 812.101562 437.304688 822.101562 444.828125 833.785156 444.828125 C 848.613281 444.828125 860.746094 432.699219 860.746094 417.875 C 860.746094 403.054688 848.613281 390.925781 833.785156 390.925781 C 822.101562 390.925781 812.101562 398.449219 808.394531 408.894531 L 755.03125 408.894531 C 760.425781 397.4375 764.46875 385.3125 767.164062 372.960938 L 797.835938 372.960938 C 802.777344 372.960938 806.820312 368.917969 806.820312 363.976562 L 806.820312 310.078125 C 806.820312 305.136719 802.777344 301.09375 797.835938 301.09375 L 767.050781 301.09375 C 762.671875 280.542969 754.359375 260.78125 742.675781 243.152344 L 759.1875 226.644531 C 762.671875 223.164062 762.671875 217.4375 759.1875 213.953125 L 723.238281 178.019531 C 719.757812 174.539062 714.027344 174.539062 710.542969 178.019531 L 694.03125 194.527344 C 687.964844 190.597656 681.671875 187.003906 675.269531 183.75 L 722.117188 103.460938 L 754.46875 103.460938 C 758.175781 113.902344 768.175781 121.425781 779.859375 121.425781 C 794.6875 121.425781 806.820312 109.300781 806.820312 94.476562 C 806.820312 79.652344 794.6875 67.527344 779.859375 67.527344 C 768.175781 67.527344 758.175781 75.050781 754.46875 85.492188 L 716.949219 85.492188 C 713.800781 85.492188 710.769531 87.175781 709.195312 89.984375 L 658.640625 176.671875 C 651.339844 173.980469 643.8125 171.84375 636.175781 170.160156 L 636.175781 139.394531 C 636.175781 134.453125 632.128906 130.410156 627.1875 130.410156 L 573.261719 130.410156 C 568.320312 130.410156 564.273438 134.453125 564.273438 139.394531 L 564.273438 170.160156 C 543.714844 174.539062 523.945312 182.851562 506.308594 194.527344 L 489.792969 178.019531 C 486.308594 174.539062 480.582031 174.539062 477.097656 178.019531 L 464.179688 190.710938 L 420.363281 161.515625 L 420.363281 119.855469 C 430.8125 116.148438 438.339844 106.15625 438.339844 94.476562 C 438.339844 79.652344 426.207031 67.527344 411.378906 67.527344 C 396.546875 67.527344 384.414062 79.652344 384.414062 94.476562 C 384.414062 106.15625 391.941406 116.148438 402.390625 119.855469 L 402.390625 166.34375 C 402.390625 169.375 403.851562 172.183594 406.433594 173.867188 L 451.257812 203.734375 L 441.035156 213.953125 C 437.554688 217.4375 437.554688 223.164062 441.035156 226.644531 L 457.550781 243.152344 C 445.980469 260.78125 437.664062 280.542969 433.171875 301.09375 L 402.390625 301.09375 C 397.445312 301.09375 393.402344 305.136719 393.402344 310.078125 L 393.402344 363.976562 C 393.402344 368.917969 397.445312 372.960938 402.390625 372.960938 L 433.171875 372.960938 C 434.183594 377.453125 435.304688 381.832031 436.65625 386.210938 L 360.9375 446.847656 C 358.800781 448.53125 357.566406 451.113281 357.566406 453.808594 L 357.566406 482.332031 C 347.117188 486.039062 339.589844 496.03125 339.589844 507.710938 C 339.480469 522.53125 351.613281 534.660156 366.441406 534.660156 Z M 734.921875 570.59375 C 739.867188 570.59375 743.910156 574.636719 743.910156 579.578125 C 743.910156 584.515625 739.867188 588.558594 734.921875 588.558594 C 729.980469 588.558594 725.933594 584.515625 725.933594 579.578125 C 725.933594 574.636719 729.980469 570.59375 734.921875 570.59375 Z M 833.785156 408.894531 C 838.726562 408.894531 842.769531 412.933594 842.769531 417.875 C 842.769531 422.816406 838.726562 426.859375 833.785156 426.859375 C 828.839844 426.859375 824.796875 422.816406 824.796875 417.875 C 824.796875 412.933594 828.839844 408.894531 833.785156 408.894531 Z M 779.859375 85.492188 C 784.800781 85.492188 788.847656 89.535156 788.847656 94.476562 C 788.847656 99.417969 784.800781 103.460938 779.859375 103.460938 C 774.917969 103.460938 770.871094 99.417969 770.871094 94.476562 C 770.871094 89.535156 774.917969 85.492188 779.859375 85.492188 Z M 411.378906 103.460938 C 406.433594 103.460938 402.390625 99.417969 402.390625 94.476562 C 402.390625 89.535156 406.433594 85.492188 411.378906 85.492188 C 416.320312 85.492188 420.363281 89.535156 420.363281 94.476562 C 420.363281 99.417969 416.320312 103.460938 411.378906 103.460938 Z M 411.378906 354.992188 L 411.378906 319.058594 L 440.585938 319.058594 C 444.96875 319.058594 448.675781 315.914062 449.460938 311.535156 C 453.28125 288.515625 462.71875 266.28125 476.421875 247.304688 C 479.007812 243.710938 478.671875 238.769531 475.523438 235.628906 L 460.023438 220.242188 L 483.277344 197 L 498.78125 212.496094 C 501.925781 215.640625 506.867188 215.976562 510.464844 213.394531 C 529.449219 199.582031 551.691406 190.261719 574.722656 186.441406 C 579.105469 185.769531 582.25 181.953125 582.25 177.570312 L 582.25 148.375 L 618.199219 148.375 L 618.199219 177.570312 C 618.199219 181.953125 621.34375 185.65625 625.726562 186.441406 C 648.757812 190.261719 671 199.695312 689.984375 213.394531 C 693.582031 215.976562 698.523438 215.640625 701.667969 212.496094 L 717.171875 197 L 740.425781 220.242188 L 724.925781 235.738281 C 721.777344 238.882812 721.441406 243.824219 724.027344 247.417969 C 737.84375 266.394531 747.167969 288.628906 750.988281 311.648438 C 751.660156 316.027344 755.480469 319.171875 759.863281 319.171875 L 789.070312 319.171875 L 789.070312 355.105469 L 759.863281 355.105469 C 755.480469 355.105469 751.773438 358.25 750.988281 362.628906 C 747.167969 385.648438 737.730469 407.882812 724.027344 426.859375 C 721.441406 430.453125 721.777344 435.394531 724.925781 438.539062 L 740.425781 454.035156 L 716.949219 477.054688 L 701.445312 461.558594 C 698.300781 458.414062 693.355469 458.078125 689.761719 460.660156 C 670.777344 474.472656 648.53125 483.792969 625.5 487.609375 C 621.121094 488.285156 617.976562 492.101562 617.976562 496.480469 L 617.976562 525.675781 L 582.023438 525.675781 L 582.023438 496.480469 C 582.023438 492.101562 578.878906 488.394531 574.5 487.609375 C 551.46875 483.792969 529.222656 474.472656 510.238281 460.660156 C 506.644531 458.078125 501.699219 458.414062 498.554688 461.558594 L 483.277344 477.054688 L 460.023438 453.808594 L 475.523438 438.3125 C 478.671875 435.167969 479.007812 430.226562 476.421875 426.636719 C 462.605469 407.65625 453.28125 385.425781 449.460938 362.402344 C 448.789062 358.023438 444.96875 354.878906 440.585938 354.878906 L 411.378906 354.878906 Z M 366.441406 498.726562 C 371.382812 498.726562 375.429688 502.769531 375.429688 507.710938 C 375.429688 512.652344 371.382812 516.691406 366.441406 516.691406 C 361.496094 516.691406 357.453125 512.652344 357.453125 507.710938 C 357.453125 502.769531 361.496094 498.726562 366.441406 498.726562 Z M 366.441406 498.726562 " fill-opacity="1" fill-rule="nonzero"/></g></svg>