<svg xmlns="http://www.w3.org/2000/svg" xmlns:xlink="http://www.w3.org/1999/xlink" width="1600" zoomAndPan="magnify" viewBox="0 0 1200 683.04" height="900" preserveAspectRatio="xMidYMid meet" version="1.0"><defs><clipPath id="51ddceca77"><path d="M 0.84375 0 L 1199.15625 0 L 1199.15625 674.050781 L 0.84375 674.050781 Z M 0.84375 0 " clip-rule="nonzero"/></clipPath><clipPath id="224c33163a"><path d="M 259.003906 254.972656 L 337 254.972656 L 337 418.992188 L 259.003906 418.992188 Z M 259.003906 254.972656 " clip-rule="nonzero"/></clipPath><clipPath id="cc56672db9"><path d="M 341 307 L 457 307 L 457 418.992188 L 341 418.992188 Z M 341 307 " clip-rule="nonzero"/></clipPath><clipPath id="e2e2199261"><path d="M 547 307 L 663 307 L 663 418.992188 L 547 418.992188 Z M 547 307 " clip-rule="nonzero"/></clipPath><clipPath id="f58937bbc3"><path d="M 915 254.972656 L 941.296875 254.972656 L 941.296875 418.992188 L 915 418.992188 Z M 915 254.972656 " clip-rule="nonzero"/></clipPath><clipPath id="193e123ff9"><path d="M 476 309 L 546 309 L 546 418.992188 L 476 418.992188 Z M 476 309 " clip-rule="nonzero"/></clipPath><clipPath id="8755eeac5c"><path d="M 674 309 L 791 309 L 791 418.992188 L 674 418.992188 Z M 674 309 " clip-rule="nonzero"/></clipPath><clipPath id="70ecac9254"><path d="M 789 307 L 900 307 L 900 418.992188 L 789 418.992188 Z M 789 307 " clip-rule="nonzero"/></clipPath></defs><g clip-path="url(#51ddceca77)"><path fill="#ffffff" d="M 0.84375 0 L 1199.15625 0 L 1199.15625 674.050781 L 0.84375 674.050781 Z M 0.84375 0 " fill-opacity="1" fill-rule="nonzero"/><path fill="#ffffff" d="M 0.84375 0 L 1199.15625 0 L 1199.15625 674.050781 L 0.84375 674.050781 Z M 0.84375 0 " fill-opacity="1" fill-rule="nonzero"/></g><g clip-path="url(#224c33163a)"><path fill="#f53003" d="M 285.808594 254.972656 L 259.007812 254.972656 L 259.007812 419.359375 L 336.144531 419.359375 L 336.144531 395.171875 L 285.808594 395.171875 Z M 285.808594 254.972656 " fill-opacity="1" fill-rule="nonzero"/></g><g clip-path="url(#cc56672db9)"><path fill="#f53003" d="M 430.757812 324.722656 C 427.339844 319.242188 422.484375 314.9375 416.191406 311.804688 C 409.902344 308.675781 403.566406 307.109375 397.199219 307.109375 C 388.960938 307.109375 381.429688 308.632812 374.59375 311.6875 C 367.753906 314.738281 361.890625 318.929688 357 324.25 C 352.105469 329.574219 348.296875 335.722656 345.578125 342.683594 C 342.859375 349.652344 341.5 356.976562 341.5 364.644531 C 341.5 372.476562 342.859375 379.828125 345.578125 386.71875 C 348.296875 393.609375 352.105469 399.714844 357 405.035156 C 361.890625 410.359375 367.757812 414.546875 374.59375 417.597656 C 381.429688 420.652344 388.960938 422.175781 397.199219 422.175781 C 403.566406 422.175781 409.902344 420.613281 416.191406 417.480469 C 422.484375 414.351562 427.339844 410.046875 430.757812 404.566406 L 430.757812 419.359375 L 456.160156 419.359375 L 456.160156 309.925781 L 430.757812 309.925781 Z M 428.425781 378.03125 C 426.871094 382.257812 424.699219 385.9375 421.902344 389.066406 C 419.105469 392.199219 415.726562 394.703125 411.765625 396.582031 C 407.804688 398.460938 403.410156 399.402344 398.597656 399.402344 C 393.78125 399.402344 389.429688 398.460938 385.546875 396.582031 C 381.660156 394.703125 378.324219 392.199219 375.527344 389.066406 C 372.730469 385.9375 370.589844 382.257812 369.117188 378.03125 C 367.636719 373.800781 366.902344 369.339844 366.902344 364.644531 C 366.902344 359.945312 367.636719 355.484375 369.117188 351.257812 C 370.589844 347.03125 372.730469 343.355469 375.527344 340.222656 C 378.324219 337.089844 381.660156 334.585938 385.546875 332.707031 C 389.429688 330.828125 393.78125 329.886719 398.597656 329.886719 C 403.410156 329.886719 407.804688 330.828125 411.765625 332.707031 C 415.726562 334.585938 419.105469 337.089844 421.902344 340.222656 C 424.699219 343.355469 426.871094 347.03125 428.425781 351.257812 C 429.976562 355.484375 430.757812 359.945312 430.757812 364.644531 C 430.757812 369.339844 429.976562 373.800781 428.425781 378.03125 Z M 428.425781 378.03125 " fill-opacity="1" fill-rule="nonzero"/></g><g clip-path="url(#e2e2199261)"><path fill="#f53003" d="M 637.234375 324.722656 C 633.816406 319.242188 628.960938 314.9375 622.667969 311.804688 C 616.375 308.675781 610.042969 307.109375 603.675781 307.109375 C 595.4375 307.109375 587.902344 308.632812 581.070312 311.6875 C 574.230469 314.738281 568.367188 318.929688 563.472656 324.25 C 558.582031 329.574219 554.773438 335.722656 552.054688 342.683594 C 549.335938 349.652344 547.976562 356.976562 547.976562 364.644531 C 547.976562 372.476562 549.335938 379.828125 552.054688 386.71875 C 554.773438 393.609375 558.578125 399.714844 563.472656 405.035156 C 568.367188 410.359375 574.230469 414.546875 581.070312 417.597656 C 587.902344 420.652344 595.4375 422.175781 603.675781 422.175781 C 610.042969 422.175781 616.375 420.613281 622.667969 417.480469 C 628.960938 414.351562 633.816406 410.046875 637.234375 404.566406 L 637.234375 419.359375 L 662.636719 419.359375 L 662.636719 309.925781 L 637.234375 309.925781 Z M 634.902344 378.03125 C 633.351562 382.257812 631.175781 385.9375 628.378906 389.066406 C 625.582031 392.199219 622.203125 394.703125 618.242188 396.582031 C 614.28125 398.460938 609.886719 399.402344 605.074219 399.402344 C 600.257812 399.402344 595.90625 398.460938 592.023438 396.582031 C 588.140625 394.703125 584.800781 392.199219 582.003906 389.066406 C 579.207031 385.9375 577.066406 382.257812 575.59375 378.03125 C 574.113281 373.800781 573.378906 369.339844 573.378906 364.644531 C 573.378906 359.945312 574.113281 355.484375 575.59375 351.257812 C 577.066406 347.03125 579.207031 343.355469 582.003906 340.222656 C 584.800781 337.089844 588.136719 334.585938 592.023438 332.707031 C 595.90625 330.828125 600.257812 329.886719 605.074219 329.886719 C 609.890625 329.886719 614.28125 330.828125 618.242188 332.707031 C 622.203125 334.585938 625.582031 337.089844 628.378906 340.222656 C 631.175781 343.355469 633.351562 347.03125 634.902344 351.257812 C 636.457031 355.484375 637.234375 359.945312 637.234375 364.644531 C 637.234375 369.339844 636.453125 373.800781 634.902344 378.03125 Z M 634.902344 378.03125 " fill-opacity="1" fill-rule="nonzero"/></g><g clip-path="url(#f58937bbc3)"><path fill="#f53003" d="M 941.292969 254.972656 L 915.894531 254.972656 L 915.894531 419.359375 L 941.292969 419.359375 Z M 941.292969 254.972656 " fill-opacity="1" fill-rule="nonzero"/></g><g clip-path="url(#193e123ff9)"><path fill="#f53003" d="M 476.203125 419.359375 L 501.601562 419.359375 L 501.601562 335.113281 L 545.183594 335.113281 L 545.183594 309.925781 L 476.203125 309.925781 Z M 476.203125 419.359375 " fill-opacity="1" fill-rule="nonzero"/></g><g clip-path="url(#8755eeac5c)"><path fill="#f53003" d="M 764.476562 309.925781 L 732.550781 393.730469 L 700.621094 309.925781 L 674.894531 309.925781 L 716.585938 419.359375 L 748.511719 419.359375 L 790.203125 309.925781 Z M 764.476562 309.925781 " fill-opacity="1" fill-rule="nonzero"/></g><g clip-path="url(#70ecac9254)"><path fill="#f53003" d="M 845.601562 307.113281 C 814.5 307.113281 789.878906 332.871094 789.878906 364.644531 C 789.878906 399.769531 813.707031 422.179688 848.859375 422.179688 C 868.535156 422.179688 881.09375 414.597656 896.4375 398.089844 L 879.28125 384.710938 C 879.269531 384.722656 866.328125 401.847656 847 401.847656 C 824.535156 401.847656 815.082031 383.597656 815.082031 374.15625 L 899.355469 374.15625 C 903.777344 338.003906 880.191406 307.113281 845.601562 307.113281 Z M 815.148438 355.136719 C 815.34375 353.03125 818.269531 327.445312 845.398438 327.445312 C 872.535156 327.445312 875.832031 353.027344 876.023438 355.136719 Z M 815.148438 355.136719 " fill-opacity="1" fill-rule="nonzero"/></g></svg>