<svg xmlns="http://www.w3.org/2000/svg" xmlns:xlink="http://www.w3.org/1999/xlink" width="1600" zoomAndPan="magnify" viewBox="0 0 1200 683.04" height="900" preserveAspectRatio="xMidYMid meet" version="1.0"><defs><g/><clipPath id="267e2fafee"><path d="M 0.84375 0 L 1199.15625 0 L 1199.15625 674.050781 L 0.84375 674.050781 Z M 0.84375 0 " clip-rule="nonzero"/></clipPath><clipPath id="9d0f26734a"><path d="M 37 4 L 197.921875 4 L 197.921875 200 L 37 200 Z M 37 4 " clip-rule="nonzero"/></clipPath><clipPath id="dc778502cd"><path d="M 28 3.957031 L 197.921875 3.957031 L 197.921875 209 L 28 209 Z M 28 3.957031 " clip-rule="nonzero"/></clipPath><clipPath id="c920b7b8f6"><path d="M 4.03125 152 L 96 152 L 96 236 L 4.03125 236 Z M 4.03125 152 " clip-rule="nonzero"/></clipPath><clipPath id="0fe07cdae9"><path d="M 4.03125 143 L 104 143 L 104 237.230469 L 4.03125 237.230469 Z M 4.03125 143 " clip-rule="nonzero"/></clipPath><clipPath id="61edb6c38e"><path d="M 243 13 L 779.609375 13 L 779.609375 227 L 243 227 Z M 243 13 " clip-rule="nonzero"/></clipPath><clipPath id="3e4074cf2a"><rect x="0" width="537" y="0" height="214"/></clipPath><clipPath id="2ad9459137"><rect x="0" width="780" y="0" height="240"/></clipPath></defs><g clip-path="url(#267e2fafee)"><path fill="#ffffff" d="M 0.84375 0 L 1199.15625 0 L 1199.15625 674.050781 L 0.84375 674.050781 Z M 0.84375 0 " fill-opacity="1" fill-rule="nonzero"/><path fill="#0b0d14" d="M 0.84375 0 L 1199.15625 0 L 1199.15625 674.050781 L 0.84375 674.050781 Z M 0.84375 0 " fill-opacity="1" fill-rule="nonzero"/></g><g transform="matrix(1, 0, 0, 1, 212, 217)"><g clip-path="url(#2ad9459137)"><g clip-path="url(#9d0f26734a)"><path fill="#c7e6ff" d="M 198.695312 146.566406 L 198.695312 198.183594 C 198.695312 199.035156 198.007812 199.722656 197.160156 199.722656 L 112.863281 199.722656 C 108.851562 199.722656 105.003906 198.128906 102.167969 195.289062 L 42.074219 135.195312 C 39.234375 132.355469 37.640625 128.511719 37.640625 124.5 L 37.640625 5.898438 C 37.640625 5.050781 38.328125 4.363281 39.179688 4.363281 L 93.621094 4.363281 C 94.472656 4.363281 95.160156 5.050781 95.160156 5.898438 L 95.160156 119.484375 C 95.160156 132.925781 105.492188 143.941406 118.652344 145.03125 C 119.359375 145.105469 120.078125 145.128906 120.804688 145.128906 C 121.285156 145.128906 121.765625 145.117188 122.242188 145.085938 C 123.109375 145.03125 123.984375 145.03125 124.855469 145.03125 L 197.152344 145.03125 C 198.003906 145.03125 198.691406 145.71875 198.691406 146.566406 Z M 198.695312 146.566406 " fill-opacity="1" fill-rule="nonzero"/></g><g clip-path="url(#dc778502cd)"><path stroke-linecap="butt" transform="matrix(0.625192, 0, 0, 0.625192, 4.030473, 4.049135)" fill="none" stroke-linejoin="miter" d="M 311.367864 227.95744 L 311.367864 310.519517 C 311.367864 311.881598 310.268203 312.981259 308.912371 312.981259 L 174.078889 312.981259 C 167.662115 312.981259 161.50776 310.432044 156.971657 305.889693 L 60.851255 209.769291 C 56.308904 205.226939 53.759689 199.078832 53.759689 192.662058 L 53.759689 2.957973 C 53.759689 1.602141 54.85935 0.502479 56.221431 0.502479 L 143.300867 0.502479 C 144.662947 0.502479 145.762609 1.602141 145.762609 2.957973 L 145.762609 184.639529 C 145.762609 206.139158 162.28877 223.758733 183.338538 225.501946 C 184.46944 225.62066 185.619086 225.658148 186.781228 225.658148 C 187.549741 225.658148 188.318255 225.639404 189.08052 225.589419 C 190.467593 225.501946 191.867162 225.501946 193.260483 225.501946 L 308.899874 225.501946 C 310.261955 225.501946 311.361616 226.601608 311.361616 227.95744 Z M 311.367864 227.95744 " stroke="#000000" stroke-width="1" stroke-opacity="1" stroke-miterlimit="10"/></g><g clip-path="url(#c920b7b8f6)"><path fill="#c7e6ff" d="M 95.160156 211.25 L 95.160156 235.644531 L 53.820312 235.644531 C 52.996094 235.644531 52.328125 234.988281 52.28125 234.164062 C 51.007812 209.65625 30.738281 190.175781 5.90625 190.175781 L 5.886719 190.175781 C 5.03125 190.175781 4.332031 189.476562 4.332031 188.617188 L 4.332031 152.226562 L 36.128906 152.226562 C 40.140625 152.226562 43.988281 153.820312 46.824219 156.660156 L 90.71875 200.554688 C 93.558594 203.390625 95.152344 207.238281 95.152344 211.25 Z M 95.160156 211.25 " fill-opacity="1" fill-rule="nonzero"/></g><g clip-path="url(#0fe07cdae9)"><path stroke-linecap="butt" transform="matrix(0.625192, 0, 0, 0.625192, 4.030473, 4.049135)" fill="none" stroke-linejoin="miter" d="M 145.762609 331.419331 L 145.762609 370.438566 L 79.63922 370.438566 C 78.320876 370.438566 77.252455 369.38889 77.177478 368.070546 C 75.140605 328.870116 42.719338 297.710961 3.000319 297.710961 L 2.969078 297.710961 C 1.60075 297.710961 0.482344 296.592556 0.482344 295.217979 L 0.482344 237.010902 L 51.341683 237.010902 C 57.758457 237.010902 63.912812 239.560117 68.448915 244.102469 L 138.658546 314.312099 C 143.200897 318.848202 145.750112 325.002557 145.750112 331.419331 Z M 145.762609 331.419331 " stroke="#000000" stroke-width="1" stroke-opacity="1" stroke-miterlimit="10"/></g><g clip-path="url(#61edb6c38e)"><g transform="matrix(1, 0, 0, 1, 243, 13)"><g clip-path="url(#3e4074cf2a)"><g fill="#c7e6ff" fill-opacity="1"><g transform="translate(0.820123, 162.051492)"><g><path d="M 7.984375 0 L 7.984375 -109.53125 L 28.328125 -109.53125 L 28.328125 -15.96875 L 76.828125 -15.96875 L 76.828125 0 Z M 7.984375 0 "/></g></g></g><g fill="#c7e6ff" fill-opacity="1"><g transform="translate(65.131283, 162.051492)"><g><path d="M 5 34.421875 L 5 18.3125 L 21.59375 18.3125 C 23.15625 18.3125 24.457031 18.128906 25.5 17.765625 C 26.550781 17.398438 27.546875 16.585938 28.484375 15.328125 C 29.421875 14.078125 30.410156 12.148438 31.453125 9.546875 L 38.1875 -5 L 37.09375 3.90625 L 3.28125 -77.609375 L 25.34375 -77.609375 L 46.9375 -23.3125 L 69.484375 -77.609375 L 91.078125 -77.609375 L 49.765625 16.59375 C 48.097656 20.445312 46.609375 23.546875 45.296875 25.890625 C 43.992188 28.242188 42.71875 30.019531 41.46875 31.21875 C 40.21875 32.414062 38.726562 33.25 37 33.71875 C 35.28125 34.1875 33.066406 34.421875 30.359375 34.421875 Z M 5 34.421875 "/></g></g></g><g fill="#c7e6ff" fill-opacity="1"><g transform="translate(155.106163, 162.051492)"><g><path d="M 6.421875 0 L 6.421875 -77.609375 L 26.765625 -77.609375 L 26.765625 -68.078125 C 29.265625 -71.617188 32.546875 -74.40625 36.609375 -76.4375 C 40.679688 -78.476562 45.273438 -79.5 50.390625 -79.5 C 56.335938 -79.5 61.445312 -78.320312 65.71875 -75.96875 C 70 -73.625 73.335938 -70.207031 75.734375 -65.71875 C 78.660156 -70 82.46875 -73.363281 87.15625 -75.8125 C 91.851562 -78.269531 97.070312 -79.5 102.8125 -79.5 C 112.925781 -79.5 120.695312 -76.445312 126.125 -70.34375 C 131.550781 -64.238281 134.265625 -55.34375 134.265625 -43.65625 L 134.265625 0 L 114.078125 0 L 114.078125 -41.78125 C 114.078125 -48.457031 112.796875 -53.539062 110.234375 -57.03125 C 107.679688 -60.53125 103.691406 -62.28125 98.265625 -62.28125 C 92.953125 -62.28125 88.675781 -60.320312 85.4375 -56.40625 C 82.207031 -52.5 80.59375 -47.050781 80.59375 -40.0625 L 80.59375 0 L 60.40625 0 L 60.40625 -41.78125 C 60.40625 -48.457031 59.070312 -53.539062 56.40625 -57.03125 C 53.75 -60.53125 49.757812 -62.28125 44.4375 -62.28125 C 39.226562 -62.28125 34.976562 -60.320312 31.6875 -56.40625 C 28.40625 -52.5 26.765625 -47.050781 26.765625 -40.0625 L 26.765625 0 Z M 6.421875 0 "/></g></g></g><g fill="#c7e6ff" fill-opacity="1"><g transform="translate(295.780115, 162.051492)"><g><path d="M 45.0625 1.875 C 37.238281 1.875 30.195312 0.15625 23.9375 -3.28125 C 17.675781 -6.726562 12.71875 -11.53125 9.0625 -17.6875 C 5.414062 -23.84375 3.59375 -30.882812 3.59375 -38.8125 C 3.59375 -46.84375 5.414062 -53.910156 9.0625 -60.015625 C 12.71875 -66.117188 17.703125 -70.890625 24.015625 -74.328125 C 30.328125 -77.773438 37.34375 -79.5 45.0625 -79.5 C 52.882812 -79.5 59.925781 -77.773438 66.1875 -74.328125 C 72.445312 -70.890625 77.398438 -66.117188 81.046875 -60.015625 C 84.703125 -53.910156 86.53125 -46.84375 86.53125 -38.8125 C 86.53125 -30.882812 84.703125 -23.84375 81.046875 -17.6875 C 77.398438 -11.53125 72.445312 -6.726562 66.1875 -3.28125 C 59.925781 0.15625 52.882812 1.875 45.0625 1.875 Z M 45.0625 -15.640625 C 48.820312 -15.640625 52.265625 -16.5 55.390625 -18.21875 C 58.523438 -19.945312 61.003906 -22.53125 62.828125 -25.96875 C 64.648438 -29.414062 65.5625 -33.695312 65.5625 -38.8125 C 65.5625 -43.914062 64.625 -48.1875 62.75 -51.625 C 60.875 -55.070312 58.394531 -57.65625 55.3125 -59.375 C 52.238281 -61.101562 48.875 -61.96875 45.21875 -61.96875 C 41.46875 -61.96875 38.023438 -61.078125 34.890625 -59.296875 C 31.765625 -57.523438 29.257812 -54.941406 27.375 -51.546875 C 25.5 -48.160156 24.5625 -43.914062 24.5625 -38.8125 C 24.5625 -33.695312 25.472656 -29.414062 27.296875 -25.96875 C 29.128906 -22.53125 31.609375 -19.945312 34.734375 -18.21875 C 37.867188 -16.5 41.3125 -15.640625 45.0625 -15.640625 Z M 45.0625 -15.640625 "/></g></g></g><g fill="#c7e6ff" fill-opacity="1"><g transform="translate(385.911612, 162.051492)"><g><path d="M 6.421875 0 L 6.421875 -77.609375 L 26.765625 -77.609375 L 26.765625 -65.71875 C 28.742188 -69.6875 31.296875 -72.789062 34.421875 -75.03125 C 37.554688 -77.28125 41.15625 -78.40625 45.21875 -78.40625 L 55.078125 -78.40625 L 55.078125 -60.25 L 43.1875 -60.25 C 39.4375 -60.25 36.332031 -59.253906 33.875 -57.265625 C 31.425781 -55.285156 29.628906 -52.3125 28.484375 -48.34375 C 27.335938 -44.382812 26.765625 -39.484375 26.765625 -33.640625 L 26.765625 0 Z M 6.421875 0 "/></g></g></g><g fill="#c7e6ff" fill-opacity="1"><g transform="translate(442.087111, 162.051492)"><g><path d="M 33.015625 1.875 C 27.171875 1.875 22.132812 0.832031 17.90625 -1.25 C 13.6875 -3.332031 10.476562 -6.144531 8.28125 -9.6875 C 6.09375 -13.238281 5 -17.15625 5 -21.4375 C 5 -29.570312 7.921875 -35.851562 13.765625 -40.28125 C 19.609375 -44.71875 27.28125 -46.9375 36.78125 -46.9375 C 41.257812 -46.9375 45.113281 -46.625 48.34375 -46 C 51.582031 -45.375 54.242188 -44.695312 56.328125 -43.96875 L 56.328125 -47.734375 C 56.328125 -53.148438 54.789062 -57.109375 51.71875 -59.609375 C 48.644531 -62.117188 44.65625 -63.375 39.75 -63.375 C 36.300781 -63.375 33.222656 -62.671875 30.515625 -61.265625 C 27.804688 -59.859375 26.082031 -57.378906 25.34375 -53.828125 L 6.109375 -53.828125 C 6.734375 -59.359375 8.609375 -64.023438 11.734375 -67.828125 C 14.867188 -71.640625 18.859375 -74.535156 23.703125 -76.515625 C 28.554688 -78.503906 33.90625 -79.5 39.75 -79.5 C 51.320312 -79.5 60.367188 -76.734375 66.890625 -71.203125 C 73.410156 -65.671875 76.671875 -57.847656 76.671875 -47.734375 L 76.671875 -30.203125 C 76.671875 -26.234375 76.90625 -23.3125 77.375 -21.4375 C 77.84375 -19.5625 78.597656 -18.363281 79.640625 -17.84375 C 80.691406 -17.320312 82.101562 -17.0625 83.875 -17.0625 L 84.5 -17.0625 L 84.5 0 L 80.125 0 C 74.59375 0 70 -0.726562 66.34375 -2.1875 C 62.695312 -3.644531 60.039062 -6.515625 58.375 -10.796875 C 55.757812 -7.148438 52.3125 -4.125 48.03125 -1.71875 C 43.757812 0.675781 38.753906 1.875 33.015625 1.875 Z M 37.5625 -13.609375 C 40.894531 -13.609375 43.734375 -14.363281 46.078125 -15.875 C 48.429688 -17.394531 50.390625 -19.484375 51.953125 -22.140625 C 53.515625 -24.804688 54.609375 -27.703125 55.234375 -30.828125 C 53.046875 -31.453125 50.515625 -32.050781 47.640625 -32.625 C 44.773438 -33.195312 41.882812 -33.484375 38.96875 -33.484375 C 34.894531 -33.484375 31.628906 -32.570312 29.171875 -30.75 C 26.722656 -28.925781 25.5 -26.394531 25.5 -23.15625 C 25.5 -20.34375 26.566406 -18.046875 28.703125 -16.265625 C 30.847656 -14.492188 33.800781 -13.609375 37.5625 -13.609375 Z M 37.5625 -13.609375 "/></g></g></g></g></g></g></g></g></svg>