<svg xmlns="http://www.w3.org/2000/svg" xmlns:xlink="http://www.w3.org/1999/xlink" width="1600" zoomAndPan="magnify" viewBox="0 0 1200 683.04" height="900" preserveAspectRatio="xMidYMid meet" version="1.0"><defs><clipPath id="aafd1a7f11"><path d="M 0.84375 0 L 1199.15625 0 L 1199.15625 674.050781 L 0.84375 674.050781 Z M 0.84375 0 " clip-rule="nonzero"/></clipPath><clipPath id="811c7b3732"><path d="M 346.191406 83.214844 L 853.800781 83.214844 L 853.800781 590.828125 L 346.191406 590.828125 Z M 346.191406 83.214844 " clip-rule="nonzero"/></clipPath></defs><g clip-path="url(#aafd1a7f11)"><path fill="#ffffff" d="M 0.84375 0 L 1199.15625 0 L 1199.15625 674.050781 L 0.84375 674.050781 Z M 0.84375 0 " fill-opacity="1" fill-rule="nonzero"/><path fill="#fafaf5" d="M 0.84375 0 L 1199.15625 0 L 1199.15625 674.050781 L 0.84375 674.050781 Z M 0.84375 0 " fill-opacity="1" fill-rule="nonzero"/></g><g clip-path="url(#811c7b3732)"><path fill="#1800ad" d="M 600.113281 590.828125 C 596.78125 590.828125 593.449219 590.777344 590.117188 590.632812 C 458.421875 585.660156 351.402344 478.59375 346.382812 346.898438 C 343.726562 277.164062 368.835938 211.144531 417.128906 161.015625 C 465.425781 110.839844 530.378906 83.214844 599.96875 83.214844 C 739.921875 83.214844 853.75 197.09375 853.75 336.996094 C 853.75 406.636719 826.125 471.542969 775.949219 519.835938 C 728.1875 565.8125 666.082031 590.777344 600.066406 590.777344 Z M 600.015625 92.875 C 533.035156 92.875 470.589844 119.4375 424.132812 167.730469 C 377.625 215.925781 353.480469 279.480469 356.039062 346.558594 C 360.867188 473.234375 463.832031 576.195312 590.503906 580.976562 C 657.535156 583.535156 721.089844 559.339844 769.332031 512.929688 C 817.578125 466.472656 844.1875 403.980469 844.1875 337.046875 C 844.1875 202.40625 734.660156 92.921875 600.066406 92.921875 Z M 600.015625 92.875 " fill-opacity="1" fill-rule="nonzero"/></g><path fill="#1800ad" d="M 436.746094 281.125 L 436.746094 301.839844 C 446.113281 301.839844 446.308594 308.023438 446.308594 308.023438 L 446.308594 373.21875 C 446.308594 373.21875 446.015625 379.402344 436.648438 379.402344 L 436.648438 400.117188 L 482.816406 400.117188 L 482.816406 379.402344 C 473.449219 379.402344 473.253906 373.027344 473.253906 373.027344 L 473.253906 341.25 L 497.691406 399.972656 L 497.691406 400.070312 L 536.085938 400.070312 L 536.085938 307.976562 C 536.085938 307.976562 536.277344 301.792969 545.644531 301.792969 L 545.644531 280.882812 L 499.574219 280.882812 L 499.574219 301.839844 C 508.941406 301.839844 509.136719 307.78125 509.136719 307.78125 L 509.136719 336.226562 L 485.761719 280.882812 L 436.695312 280.882812 L 436.695312 281.074219 Z M 436.746094 281.125 " fill-opacity="1" fill-rule="nonzero"/><path fill="#1800ad" d="M 650.148438 308.070312 C 650.148438 308.070312 650.339844 301.890625 659.710938 301.890625 L 659.710938 280.882812 L 608.855469 280.882812 L 608.855469 301.839844 C 618.226562 301.839844 618.371094 307.828125 618.371094 307.828125 L 618.371094 373.121094 C 618.371094 373.121094 618.175781 379.304688 608.808594 379.304688 L 608.808594 400.023438 L 659.757812 400.023438 L 659.757812 379.304688 C 650.390625 379.304688 650.195312 372.929688 650.195312 372.929688 L 650.195312 308.023438 Z M 650.148438 308.070312 " fill-opacity="1" fill-rule="nonzero"/><path fill="#1800ad" d="M 593.171875 308.070312 C 593.171875 308.070312 593.363281 301.890625 602.683594 301.890625 L 602.683594 280.882812 L 551.832031 280.882812 L 551.832031 301.839844 C 561.199219 301.839844 561.34375 307.828125 561.34375 307.828125 L 561.34375 373.121094 C 561.34375 373.121094 561.152344 379.304688 551.78125 379.304688 L 551.78125 400.023438 L 602.730469 400.023438 L 602.730469 379.304688 C 593.363281 379.304688 593.171875 372.929688 593.171875 372.929688 L 593.171875 308.023438 Z M 593.171875 308.070312 " fill-opacity="1" fill-rule="nonzero"/><path fill="#1800ad" d="M 689.019531 400.308594 L 739.917969 400.308594 L 739.917969 379.300781 C 730.550781 379.300781 730.308594 373.121094 730.308594 373.121094 L 730.308594 310.484375 C 730.308594 303.820312 734.125 303.820312 734.125 303.820312 C 739.582031 304.011719 739.242188 311.207031 739.242188 311.207031 L 739.242188 329.511719 L 763.339844 329.511719 L 763.339844 280.929688 L 665.210938 280.929688 L 665.210938 329.511719 L 689.308594 329.511719 L 689.308594 311.207031 C 689.308594 311.207031 688.96875 304.011719 694.425781 303.820312 C 694.425781 303.820312 698.484375 303.820312 698.484375 309.46875 L 698.484375 373.3125 C 698.484375 373.3125 698.289062 379.496094 688.921875 379.496094 L 688.921875 400.261719 L 689.019531 400.261719 Z M 689.019531 400.308594 " fill-opacity="1" fill-rule="nonzero"/></svg>