<svg xmlns="http://www.w3.org/2000/svg" xmlns:xlink="http://www.w3.org/1999/xlink" width="1600" zoomAndPan="magnify" viewBox="0 0 1200 683.04" height="900" preserveAspectRatio="xMidYMid meet" version="1.0"><defs><clipPath id="2a7e969cca"><path d="M 0.84375 0 L 1199.15625 0 L 1199.15625 674.050781 L 0.84375 674.050781 Z M 0.84375 0 " clip-rule="nonzero"/></clipPath><clipPath id="b4416a6bb3"><path d="M 228.644531 192.609375 L 971.597656 192.609375 L 971.597656 481.703125 L 228.644531 481.703125 Z M 228.644531 192.609375 " clip-rule="nonzero"/></clipPath></defs><g clip-path="url(#2a7e969cca)"><path fill="#ffffff" d="M 0.84375 0 L 1199.15625 0 L 1199.15625 674.050781 L 0.84375 674.050781 Z M 0.84375 0 " fill-opacity="1" fill-rule="nonzero"/><path fill="#fafaf5" d="M 0.84375 0 L 1199.15625 0 L 1199.15625 674.050781 L 0.84375 674.050781 Z M 0.84375 0 " fill-opacity="1" fill-rule="nonzero"/></g><g clip-path="url(#b4416a6bb3)"><path fill="#cb3837" d="M 228.652344 192.609375 L 971.589844 192.609375 L 971.589844 440.40625 L 600.121094 440.40625 L 600.121094 481.703125 L 435.023438 481.703125 L 435.023438 440.40625 L 228.652344 440.40625 Z M 269.925781 399.105469 L 352.476562 399.105469 L 352.476562 275.207031 L 393.75 275.207031 L 393.75 399.105469 L 435.023438 399.105469 L 435.023438 233.910156 L 269.925781 233.910156 Z M 476.296875 233.910156 L 476.296875 440.40625 L 558.847656 440.40625 L 558.847656 399.105469 L 641.394531 399.105469 L 641.394531 233.910156 Z M 558.847656 275.207031 L 600.121094 275.207031 L 600.121094 357.804688 L 558.847656 357.804688 Z M 682.667969 233.910156 L 682.667969 399.105469 L 765.21875 399.105469 L 765.21875 275.207031 L 806.492188 275.207031 L 806.492188 399.105469 L 847.765625 399.105469 L 847.765625 275.207031 L 889.042969 275.207031 L 889.042969 399.105469 L 930.316406 399.105469 L 930.316406 233.910156 Z M 682.667969 233.910156 " fill-opacity="1" fill-rule="nonzero"/></g><path fill="#ffffff" d="M 269.925781 399.105469 L 352.476562 399.105469 L 352.476562 275.207031 L 393.75 275.207031 L 393.75 399.105469 L 435.023438 399.105469 L 435.023438 233.910156 L 269.925781 233.910156 Z M 269.925781 399.105469 " fill-opacity="1" fill-rule="nonzero"/><path fill="#ffffff" d="M 476.296875 233.910156 L 476.296875 440.40625 L 558.847656 440.40625 L 558.847656 399.105469 L 641.394531 399.105469 L 641.394531 233.910156 Z M 600.121094 357.804688 L 558.847656 357.804688 L 558.847656 275.207031 L 600.121094 275.207031 Z M 600.121094 357.804688 " fill-opacity="1" fill-rule="nonzero"/><path fill="#ffffff" d="M 682.667969 233.910156 L 682.667969 399.105469 L 765.21875 399.105469 L 765.21875 275.207031 L 806.492188 275.207031 L 806.492188 399.105469 L 847.765625 399.105469 L 847.765625 275.207031 L 889.042969 275.207031 L 889.042969 399.105469 L 930.316406 399.105469 L 930.316406 233.910156 Z M 682.667969 233.910156 " fill-opacity="1" fill-rule="nonzero"/></svg>