<svg xmlns="http://www.w3.org/2000/svg" xmlns:xlink="http://www.w3.org/1999/xlink" width="1600" zoomAndPan="magnify" viewBox="0 0 1200 683.04" height="900" preserveAspectRatio="xMidYMid meet" version="1.0"><defs><clipPath id="ef2f527b9c"><path d="M 0.84375 0 L 1199.15625 0 L 1199.15625 674.050781 L 0.84375 674.050781 Z M 0.84375 0 " clip-rule="nonzero"/></clipPath><clipPath id="5b9467610b"><path d="M 341 261 L 520 261 L 520 466.996094 L 341 466.996094 Z M 341 261 " clip-rule="nonzero"/></clipPath><clipPath id="c1b52d6ca3"><path d="M 522 207.113281 L 682 207.113281 L 682 413 L 522 413 Z M 522 207.113281 " clip-rule="nonzero"/></clipPath><clipPath id="5706f3ebab"><path d="M 680 261 L 859 261 L 859 466.996094 L 680 466.996094 Z M 680 261 " clip-rule="nonzero"/></clipPath></defs><g clip-path="url(#ef2f527b9c)"><path fill="#ffffff" d="M 0.84375 0 L 1199.15625 0 L 1199.15625 674.050781 L 0.84375 674.050781 Z M 0.84375 0 " fill-opacity="1" fill-rule="nonzero"/><path fill="#fafaf5" d="M 0.84375 0 L 1199.15625 0 L 1199.15625 674.050781 L 0.84375 674.050781 Z M 0.84375 0 " fill-opacity="1" fill-rule="nonzero"/></g><g clip-path="url(#5b9467610b)"><path fill="#4f5b93" d="M 382.304688 261.667969 L 459.007812 261.667969 C 481.695312 261.667969 497.902344 268.152344 508.164062 281.117188 C 518.429688 294.082031 521.671875 311.367188 518.429688 333.511719 C 517.347656 343.777344 514.109375 353.5 509.785156 363.222656 C 505.464844 372.945312 499.523438 381.589844 491.421875 389.691406 C 481.695312 399.414062 471.433594 405.898438 460.628906 408.597656 C 449.828125 411.300781 438.484375 412.378906 426.597656 412.378906 L 392.027344 412.378906 L 381.222656 466.9375 L 341.25 466.9375 L 382.304688 261.667969 M 415.796875 294.621094 L 398.507812 380.507812 C 399.589844 380.507812 400.671875 381.050781 401.75 381.050781 C 402.832031 381.050781 404.453125 381.050781 405.53125 381.050781 C 423.898438 381.050781 439.023438 379.429688 451.445312 375.648438 C 463.871094 371.867188 471.972656 357.820312 476.296875 334.054688 C 479.535156 314.066406 476.296875 302.722656 466.03125 299.480469 C 455.769531 296.242188 443.34375 295.160156 428.21875 295.160156 C 426.058594 295.160156 423.898438 295.699219 421.738281 295.699219 C 419.578125 294.621094 417.414062 294.621094 415.796875 294.621094 " fill-opacity="1" fill-rule="nonzero"/></g><g clip-path="url(#c1b52d6ca3)"><path fill="#4f5b93" d="M 563.265625 207.113281 L 602.695312 207.113281 L 591.351562 261.667969 L 627.003906 261.667969 C 646.453125 262.210938 661.035156 265.992188 670.757812 273.554688 C 680.484375 281.117188 683.183594 295.699219 679.402344 317.308594 L 659.957031 412.917969 L 619.984375 412.917969 L 638.347656 321.628906 C 640.507812 311.90625 639.429688 305.425781 636.726562 301.101562 C 633.488281 297.320312 627.003906 295.160156 616.742188 295.160156 L 584.871094 294.621094 L 561.644531 412.378906 L 522.210938 412.378906 L 563.265625 207.113281 " fill-opacity="1" fill-rule="nonzero"/></g><g clip-path="url(#5706f3ebab)"><path fill="#4f5b93" d="M 721.535156 261.667969 L 798.242188 261.667969 C 820.929688 261.667969 837.136719 268.152344 847.398438 281.117188 C 857.660156 294.082031 860.902344 311.367188 857.660156 333.511719 C 856.582031 343.777344 853.339844 353.5 849.019531 363.222656 C 844.699219 372.945312 838.753906 381.589844 830.652344 389.691406 C 820.929688 399.414062 810.667969 405.898438 799.863281 408.597656 C 789.058594 411.300781 777.714844 412.378906 765.832031 412.378906 L 731.261719 412.378906 L 720.457031 466.9375 L 680.484375 466.9375 L 721.535156 261.667969 M 755.027344 294.621094 L 737.742188 380.507812 C 738.824219 380.507812 739.902344 381.050781 740.984375 381.050781 C 742.0625 381.050781 743.683594 381.050781 744.765625 381.050781 C 763.128906 381.050781 778.253906 379.429688 790.679688 375.648438 C 803.105469 371.867188 811.207031 357.820312 815.527344 334.054688 C 818.769531 314.066406 815.527344 302.722656 805.265625 299.480469 C 795 296.242188 782.578125 295.160156 767.453125 295.160156 C 765.292969 295.160156 763.128906 295.699219 760.96875 295.699219 C 758.808594 294.621094 756.648438 294.621094 755.027344 294.621094 " fill-opacity="1" fill-rule="nonzero"/></g></svg>