<svg xmlns="http://www.w3.org/2000/svg" xmlns:xlink="http://www.w3.org/1999/xlink" width="1600" zoomAndPan="magnify" viewBox="0 0 1200 683.04" height="900" preserveAspectRatio="xMidYMid meet" version="1.0"><defs><clipPath id="15ac401bb1"><path d="M 0.84375 0 L 1199.15625 0 L 1199.15625 674.050781 L 0.84375 674.050781 Z M 0.84375 0 " clip-rule="nonzero"/></clipPath><clipPath id="899916c82e"><path d="M 378.210938 208 L 660 208 L 660 416 L 378.210938 416 Z M 378.210938 208 " clip-rule="nonzero"/></clipPath><clipPath id="270464d1de"><path d="M 540 258 L 821.589844 258 L 821.589844 466 L 540 466 Z M 540 258 " clip-rule="nonzero"/></clipPath></defs><g clip-path="url(#15ac401bb1)"><path fill="#ffffff" d="M 0.84375 0 L 1199.15625 0 L 1199.15625 674.050781 L 0.84375 674.050781 Z M 0.84375 0 " fill-opacity="1" fill-rule="nonzero"/><path fill="#161c25" d="M 0.84375 0 L 1199.15625 0 L 1199.15625 674.050781 L 0.84375 674.050781 Z M 0.84375 0 " fill-opacity="1" fill-rule="nonzero"/></g><g clip-path="url(#899916c82e)"><path fill="#f53003" d="M 659.789062 338.875 L 609.347656 338.875 L 609.347656 308.058594 C 609.347656 289.8125 588.464844 265.996094 570.597656 262.738281 C 548.761719 258.753906 481.644531 258.269531 461.773438 265.132812 C 410.019531 283.058594 425.25 365.179688 480.429688 363.121094 L 480.429688 415.402344 C 377.800781 414.988281 338.46875 275.929688 428.246094 224.195312 C 465.480469 202.734375 574.878906 203.035156 611.777344 225.355469 C 631.910156 237.535156 659.789062 272.65625 659.789062 296.867188 Z M 659.789062 338.875 " fill-opacity="1" fill-rule="nonzero"/></g><g clip-path="url(#270464d1de)"><path fill="#f53003" d="M 540.246094 335.132812 L 590.691406 335.132812 L 590.691406 365.949219 C 590.691406 383.949219 610.617188 406.757812 627.945312 410.871094 C 648.226562 415.699219 719.160156 416.167969 738.28125 408.851562 C 790.316406 388.945312 775.066406 309.984375 719.625 310.84375 L 719.625 258.566406 C 822.125 259.074219 861.527344 398.074219 771.792969 449.808594 C 734.519531 471.289062 625.230469 471.007812 588.257812 448.648438 C 568.3125 436.582031 540.246094 401.125 540.246094 377.136719 Z M 540.246094 335.132812 " fill-opacity="1" fill-rule="nonzero"/></g></svg>