<svg xmlns="http://www.w3.org/2000/svg" xmlns:xlink="http://www.w3.org/1999/xlink" width="1600" zoomAndPan="magnify" viewBox="0 0 1200 683.04" height="900" preserveAspectRatio="xMidYMid meet" version="1.0"><defs><clipPath id="2d5a56d423"><path d="M 0.84375 0 L 1199.15625 0 L 1199.15625 674.050781 L 0.84375 674.050781 Z M 0.84375 0 " clip-rule="nonzero"/></clipPath><clipPath id="df02fc4023"><path d="M 428.125 358 L 599 358 L 599 502 L 428.125 502 Z M 428.125 358 " clip-rule="nonzero"/></clipPath><clipPath id="1892913975"><path d="M 601 172.027344 L 771.894531 172.027344 L 771.894531 316 L 601 316 Z M 601 172.027344 " clip-rule="nonzero"/></clipPath><clipPath id="971ffabd66"><path d="M 428.125 172.027344 L 599 172.027344 L 599 293 L 428.125 293 Z M 428.125 172.027344 " clip-rule="nonzero"/></clipPath><clipPath id="d15abbe532"><path d="M 601 381 L 771.894531 381 L 771.894531 502 L 601 502 Z M 601 381 " clip-rule="nonzero"/></clipPath><clipPath id="534e5c3d73"><path d="M 428.125 274 L 599 274 L 599 418 L 428.125 418 Z M 428.125 274 " clip-rule="nonzero"/></clipPath><clipPath id="372fb0a120"><path d="M 601 255 L 771.894531 255 L 771.894531 400 L 601 400 Z M 601 255 " clip-rule="nonzero"/></clipPath></defs><g clip-path="url(#2d5a56d423)"><path fill="#ffffff" d="M 0.84375 0 L 1199.15625 0 L 1199.15625 674.050781 L 0.84375 674.050781 Z M 0.84375 0 " fill-opacity="1" fill-rule="nonzero"/><path fill="#c8f904" d="M 0.84375 0 L 1199.15625 0 L 1199.15625 674.050781 L 0.84375 674.050781 Z M 0.84375 0 " fill-opacity="1" fill-rule="nonzero"/></g><g clip-path="url(#df02fc4023)"><path fill="#0e1a1f" d="M 428.125 358.523438 C 431.804688 357.699219 430.597656 359.179688 431.53125 360.523438 C 442.839844 376.855469 451.648438 384.808594 469.277344 394.378906 C 507.652344 415.214844 555.761719 421.914062 598.945312 422.539062 L 598.945312 501.804688 C 552.039062 501.210938 495.242188 493.242188 456.625 464.941406 C 445.007812 456.425781 428.125 438.644531 428.125 423.304688 Z M 428.125 358.523438 " fill-opacity="1" fill-rule="nonzero"/></g><g clip-path="url(#1892913975)"><path fill="#0e1a1f" d="M 771.273438 315.84375 C 768.328125 313.890625 767 309.679688 764.421875 306.6875 C 727.253906 263.582031 655.96875 253.429688 601.980469 251.828125 L 601.980469 172.546875 C 647.804688 173.601562 700.769531 180.667969 739.707031 206.371094 C 748.4375 212.140625 771.257812 232.886719 771.257812 243.433594 L 771.257812 315.84375 Z M 771.273438 315.84375 " fill-opacity="1" fill-rule="nonzero"/></g><g clip-path="url(#971ffabd66)"><path fill="#0e1a1f" d="M 598.945312 251.8125 C 547.519531 253.09375 492.386719 261.535156 450.226562 292.71875 C 433.011719 278.417969 423.089844 259.125 432.414062 237.050781 C 451.449219 191.949219 540.742188 174.042969 584.382812 172.488281 C 589.023438 172.320312 595.800781 171.296875 598.945312 174.835938 Z M 598.945312 251.8125 " fill-opacity="1" fill-rule="nonzero"/></g><g clip-path="url(#d15abbe532)"><path fill="#0e1a1f" d="M 601.996094 501.820312 L 601.996094 422.554688 C 653.269531 421.683594 708.753906 412.910156 750.714844 381.648438 C 792.917969 419.378906 765.640625 456.578125 724.335938 476.984375 C 687.308594 495.273438 643.011719 501.484375 601.996094 501.820312 Z M 601.996094 501.820312 " fill-opacity="1" fill-rule="nonzero"/></g><g clip-path="url(#534e5c3d73)"><path fill="#0e1a1f" d="M 428.125 274.679688 C 431.789062 273.871094 430.597656 275.289062 431.53125 276.664062 C 472.316406 336.253906 539.261719 316.011719 577.542969 362.371094 C 591.007812 378.6875 596.210938 396.453125 598.960938 417.183594 C 552.328125 419.746094 473.503906 405.855469 441.816406 368.460938 C 436.613281 362.308594 428.125 347.257812 428.125 339.457031 Z M 428.125 274.679688 " fill-opacity="1" fill-rule="nonzero"/></g><g clip-path="url(#372fb0a120)"><path fill="#0e1a1f" d="M 771.273438 399.675781 L 757.613281 382.074219 C 710.996094 336.253906 637.667969 357.378906 609.339844 289.421875 C 605.964844 281.332031 602.027344 267.304688 601.9375 258.667969 C 601.90625 255.429688 601.875 256.710938 604.242188 256.363281 C 618.757812 254.179688 646.675781 258.652344 661.753906 261.429688 C 695.152344 267.582031 748.4375 284.523438 765.855469 315.921875 C 766.753906 317.539062 771.289062 326.636719 771.289062 327.261719 L 771.289062 399.675781 Z M 771.273438 399.675781 " fill-opacity="1" fill-rule="nonzero"/></g><path fill="#0e1a1f" d="M 601.980469 417.960938 C 605.613281 371.496094 645.621094 340.832031 691.640625 351.988281 C 710.585938 356.585938 731.558594 367.164062 746.851562 379.097656 C 706.355469 409.261719 651.695312 417.976562 601.996094 417.960938 Z M 601.980469 417.960938 " fill-opacity="1" fill-rule="nonzero"/><path fill="#0e1a1f" d="M 598.929688 256.390625 C 596.167969 286.308594 578.460938 312.5625 549.277344 321.84375 C 517.238281 332.039062 479.167969 314.609375 454.074219 295.253906 C 494.8125 265.261719 549.230469 256.605469 598.929688 256.390625 Z M 598.929688 256.390625 " fill-opacity="1" fill-rule="nonzero"/></svg>